# xmcd CD database file generated by OrangeCD 5.2
#
# Track frame offsets:
#	150
#	13480
#	29822
#	43847
#	61967
#	83037
#	100800
#	119050
#	134317
#	148350
#
# Disc length: 2181 seconds
#
# Revision: 5
# Processed by: cddbd v1.5.1PL0 Copyright (c) Steve Scherf et al.
# Submitted via: OrangeCD 5.2
#
DISCID=9b08830a
DTITLE=Various Artist - Unbeatable Wheatables/Unbeatable Country
DYEAR=1994
DGENRE=Country
TTITLE0=Aaron Tippin - I Wouldn't Have it Any Other Way
TTITLE1=Alabama - Forever's as Far as I'll Go
TTITLE2=Lari White - What a Woman Wants
TTITLE3=Vince gill - I Never Knew Lonely
TTITLE4=Lorrie Morgan - Something Red
TTITLE5=Clint Black - State of Mind
TTITLE6=Little texas - First Time For Everything
TTITLE7=The Judds - Have Mercy
TTITLE8=Toby Keith - He Ain't Worth Missing
TTITLE9=Blackhawk - Goodbye Says it All
EXTD=
EXTT0=
EXTT1=
EXTT2=
EXTT3=
EXTT4=
EXTT5=
EXTT6=
EXTT7=
EXTT8=
EXTT9=
PLAYORDER=
